<?xml version="1.0" encoding="utf-8"?>
<!-- Generator: Adobe Illustrator 26.0.3, SVG Export Plug-In . SVG Version: 6.00 Build 0)  -->
<svg version="1.0" id="katman_1" xmlns="http://www.w3.org/2000/svg" xmlns:xlink="http://www.w3.org/1999/xlink" x="0px" y="0px"
	 viewBox="0 0 600 450" style="enable-background:new 0 0 600 450;" xml:space="preserve">
<style type="text/css">
	.st0{fill:none;stroke:#B7AC82;stroke-width:11.7698;}
	.st1{fill-rule:evenodd;clip-rule:evenodd;fill:#7E7144;}
	.st2{filter:url(#Adobe_OpacityMaskFilter);}
	.st3{fill-rule:evenodd;clip-rule:evenodd;fill:#FFFFFF;}
	.st4{mask:url(#mask-2_00000050652421735949528030000005777538513236389533_);fill-rule:evenodd;clip-rule:evenodd;fill:#7E7144;}
	.st5{filter:url(#Adobe_OpacityMaskFilter_00000129914474847057517650000013574005265599815051_);}
	.st6{mask:url(#mask-2_00000011741035438638101220000016352451114976091052_);fill-rule:evenodd;clip-rule:evenodd;fill:#7E7144;}
	.st7{filter:url(#Adobe_OpacityMaskFilter_00000057862173520081315180000017067596494549990530_);}
	.st8{mask:url(#mask-2_00000095330342078378535260000012318053576557339067_);fill-rule:evenodd;clip-rule:evenodd;fill:#7E7144;}
</style>
<g id="Icon-_x2F_-Visual-_x2F_-Bankers">
	<circle id="Oval" class="st0" cx="300.1" cy="225.4" r="141.2"/>
	<g id="Group-24" transform="translate(19.000000, 15.000000)">
		<path id="Fill-1" class="st1" d="M217.5,250.9H231v-41.9h-13.5V250.9z M212.5,255.5H236v-51h-23.5V255.5z"/>
		<polygon id="Fill-2" class="st1" points="239.9,208.4 208.5,208.4 208.5,192.7 213.1,192.7 213.1,203.7 235.3,203.7 235.3,192.7 
			239.9,192.7 		"/>
		<path id="Fill-3" class="st1" d="M205.3,262.1h37.9v-9.3h-37.9V262.1z M200.7,267.3h47.1v-19.6h-47.1V267.3z"/>
		<path id="Fill-4" class="st1" d="M272.4,250.9h13.5v-41.9h-13.5V250.9z M267.4,255.5h23.5v-51h-23.5V255.5z"/>
		<polygon id="Fill-5" class="st1" points="294.9,208.4 263.5,208.4 263.5,192.7 268.1,192.7 268.1,203.7 290.3,203.7 290.3,192.7 
			294.9,192.7 		"/>
		<path id="Fill-6" class="st1" d="M260.2,262.1h37.9v-9.3h-37.9V262.1z M255.6,267.3h47.1v-19.6h-47.1V267.3z"/>
		<path id="Fill-7" class="st1" d="M192.9,283h176.5v-19.6H192.9V283z M197.6,277.8h167.1v-9.3H197.6V277.8z"/>
		<path id="Fill-8" class="st1" d="M331.2,250.9h13.5v-41.9h-13.5V250.9z M326.2,255.5h23.5v-51h-23.5V255.5z"/>
		<polygon id="Fill-9" class="st1" points="353.7,208.4 322.3,208.4 322.3,192.7 326.9,192.7 326.9,203.7 349.1,203.7 349.1,192.7 
			353.7,192.7 		"/>
		<path id="Fill-10" class="st1" d="M319,262.1H357v-9.3H319V262.1z M314.5,267.3h47.1v-19.6h-47.1V267.3z"/>
		<polygon id="Fill-11" class="st1" points="361.6,192.7 200.7,192.7 200.7,177 205.3,177 205.3,188 356.9,188 356.9,177 361.6,177 
					"/>
		<path id="Fill-12" class="st1" d="M281.1,114.3l-88.3,45.6V177h176.5v-17.1L281.1,114.3z M197.6,162.8l83.6-43.2l83.5,43.2v9.5
			H197.6V162.8z"/>
		<polygon id="Fill-13" class="st1" points="279.2,137.8 283.1,137.8 283.1,129.9 279.2,129.9 		"/>
		<polygon id="Fill-14" class="st1" points="279.2,169.2 283.1,169.2 283.1,161.3 279.2,161.3 		"/>
		<g id="Group-23" transform="translate(0.000000, 1.000000)">
			<path id="Fill-15" class="st1" d="M280.7,163.9c-4.8,0-8.7-3.6-8.7-8.1h4.7c0,1.9,1.8,3.4,4,3.4c2.2,0,4-1.5,4-3.4
				c0-1.9-1.8-3.4-4-3.4v-4.7c4.8,0,8.7,3.6,8.7,8.1C289.4,160.2,285.5,163.9,280.7,163.9"/>
			<path id="Fill-17" class="st1" d="M280.7,152.4c-4.8,0-8.7-3.6-8.7-8.1c0-4.5,3.9-8.1,8.7-8.1c4.8,0,8.7,3.6,8.7,8.1h-4.7
				c0-1.9-1.8-3.4-4-3.4c-2.2,0-4,1.5-4,3.4c0,1.9,1.8,3.4,4,3.4V152.4z"/>
			<defs>
				<filter id="Adobe_OpacityMaskFilter" filterUnits="userSpaceOnUse" x="300.4" y="147.7" width="6.6" height="4.7">
					<feColorMatrix  type="matrix" values="1 0 0 0 0  0 1 0 0 0  0 0 1 0 0  0 0 0 1 0"/>
				</filter>
			</defs>
			
				<mask maskUnits="userSpaceOnUse" x="300.4" y="147.7" width="6.6" height="4.7" id="mask-2_00000050652421735949528030000005777538513236389533_">
				<g class="st2">
					<polygon id="path-1_00000103978782940269392110000003352212681957200768_" class="st3" points="188.9,279.9 372.8,279.9 
						372.8,117.3 188.9,117.3 					"/>
				</g>
			</mask>
			<polygon id="Fill-19" class="st4" points="300.4,152.4 307,152.4 307,147.7 300.4,147.7 			"/>
			<defs>
				
					<filter id="Adobe_OpacityMaskFilter_00000157996078051980827990000006702862886079765396_" filterUnits="userSpaceOnUse" x="254.6" y="147.7" width="6.6" height="4.7">
					<feColorMatrix  type="matrix" values="1 0 0 0 0  0 1 0 0 0  0 0 1 0 0  0 0 0 1 0"/>
				</filter>
			</defs>
			
				<mask maskUnits="userSpaceOnUse" x="254.6" y="147.7" width="6.6" height="4.7" id="mask-2_00000011741035438638101220000016352451114976091052_">
				<g style="filter:url(#Adobe_OpacityMaskFilter_00000157996078051980827990000006702862886079765396_);">
					<polygon id="path-1_00000088851639371270926550000011606092282501903242_" class="st3" points="188.9,279.9 372.8,279.9 
						372.8,117.3 188.9,117.3 					"/>
				</g>
			</mask>
			<polygon id="Fill-21" class="st6" points="254.6,152.4 261.2,152.4 261.2,147.7 254.6,147.7 			"/>
			<defs>
				
					<filter id="Adobe_OpacityMaskFilter_00000014631073237463499010000006483418222638016673_" filterUnits="userSpaceOnUse" x="188.9" y="275.2" width="183.9" height="4.7">
					<feColorMatrix  type="matrix" values="1 0 0 0 0  0 1 0 0 0  0 0 1 0 0  0 0 0 1 0"/>
				</filter>
			</defs>
			
				<mask maskUnits="userSpaceOnUse" x="188.9" y="275.2" width="183.9" height="4.7" id="mask-2_00000095330342078378535260000012318053576557339067_">
				<g style="filter:url(#Adobe_OpacityMaskFilter_00000014631073237463499010000006483418222638016673_);">
					<polygon id="path-1_00000010991084241496781330000011512227730942447236_" class="st3" points="188.9,279.9 372.8,279.9 
						372.8,117.3 188.9,117.3 					"/>
				</g>
			</mask>
			<polygon id="Fill-22" class="st8" points="188.9,279.9 372.8,279.9 372.8,275.2 188.9,275.2 			"/>
		</g>
	</g>
</g>
</svg>
